<svg width="53" height="22" viewBox="0 0 53 22" fill="none" xmlns="http://www.w3.org/2000/svg">
<path d="M5.40001 21.9L6.60866e-06 -6.67572e-06H5.07001L9.30001 18.6L8.25001 17.91H10.98L9.81001 18.6L13.08 0.809994H17.16L12.87 21.9H5.40001ZM18.45 21.9L13.83 0.809994H18.12L21.9 18.6L20.76 17.91H23.37L22.38 18.6L26.07 -6.67572e-06H30.87L26.07 21.9H18.45ZM30.2147 21.9L37.4447 -6.67572e-06H45.3947L52.8947 21.9H47.7947L41.7347 3.38999L43.2947 4.01999H39.4247L41.0447 3.38999L35.1347 21.9H30.2147ZM35.7047 16.47L37.2047 12.39H45.7847L47.3147 16.47H35.7047Z" fill="black"/>
</svg>
