<svg width="60" height="32" viewBox="0 0 60 32" fill="none" xmlns="http://www.w3.org/2000/svg">
<path d="M44.4141 11.4591C45.7266 11.4591 46.5938 11.6969 47.0391 12.1961C47.4844 12.6954 47.5781 13.5275 47.3438 14.7162C47.1094 15.9525 46.6406 16.8559 45.9609 17.3789C45.2812 17.9019 44.25 18.1634 42.8672 18.1634H40.7812L42.0703 11.4591H44.4141Z" fill="black"/>
<path d="M17.5312 11.4591C18.8438 11.4591 19.7109 11.6969 20.1562 12.1961C20.6016 12.6954 20.6953 13.5275 20.4609 14.7162C20.2266 15.9525 19.7578 16.8559 19.0781 17.3789C18.3984 17.9019 17.3672 18.1634 15.9844 18.1634H13.8984L15.1875 11.4591H17.5312Z" fill="black"/>
<path fill-rule="evenodd" clip-rule="evenodd" d="M30 30.8113C45.9213 30.8113 58.8281 24.1801 58.8281 16C58.8281 7.81995 45.9213 1.18871 30 1.18871C14.0787 1.18871 1.17188 7.81995 1.17188 16C1.17188 24.1801 14.0787 30.8113 30 30.8113ZM39.4688 24.9629H36.0234L39.0938 8.9153H45.7266C47.7188 8.9153 49.1719 9.43834 50.0859 10.5082C51 11.578 51.2812 13.052 50.9062 14.9539C50.7656 15.7385 50.5078 16.4517 50.1562 17.0936C49.8047 17.7355 49.3359 18.3299 48.75 18.8767C48.0469 19.5423 47.2969 19.9941 46.4531 20.2793C45.6094 20.5646 44.5547 20.7073 43.2422 20.7073H40.2891L39.4688 24.9629ZM26.5547 4.65973H29.9766L29.1562 8.9153H32.2031C34.125 8.9153 35.4375 9.24814 36.1641 9.93759C36.8906 10.627 37.1016 11.7207 36.8203 13.2422L35.3906 20.7073H31.9219L33.2812 13.5988C33.4453 12.7905 33.375 12.2437 33.1172 11.9584C32.8594 11.6731 32.2734 11.5067 31.4062 11.5067H28.6641L26.9062 20.7073H23.4844L26.5547 4.65973ZM12.5859 24.9629H9.14062L12.2109 8.9153H18.8438C20.8359 8.9153 22.2891 9.43834 23.2031 10.5082C24.1172 11.578 24.3984 13.052 24.0234 14.9539C23.8828 15.7385 23.625 16.4517 23.2734 17.0936C22.9219 17.7355 22.4531 18.3299 21.8672 18.8767C21.1641 19.5423 20.4141 19.9941 19.5703 20.2793C18.7266 20.5646 17.6719 20.7073 16.3594 20.7073H13.4062L12.5859 24.9629Z" fill="black"/>
<path fill-rule="evenodd" clip-rule="evenodd" d="M60 16C60 24.8366 46.5685 32 30 32C13.4315 32 0 24.8366 0 16C0 7.16344 13.4315 0 30 0C46.5685 0 60 7.16344 60 16ZM59.52 16C59.52 20.1473 56.3593 24.0191 50.9898 26.8828C45.6427 29.7346 38.2225 31.5131 30 31.5131C21.7775 31.5131 14.3573 29.7346 9.01018 26.8828C3.64075 24.0191 0.48 20.1473 0.48 16C0.48 11.8527 3.64075 7.98094 9.01018 5.11725C14.3573 2.26544 21.7775 0.486894 30 0.486894C38.2225 0.486894 45.6427 2.26544 50.9898 5.11725C56.3593 7.98094 59.52 11.8527 59.52 16Z" fill="black"/>
</svg>
