<svg width="56" height="54" viewBox="0 0 56 54" fill="none" xmlns="http://www.w3.org/2000/svg">
<path fill-rule="evenodd" clip-rule="evenodd" d="M28 0C12.53 0 0 12.3881 0 27.6829C0 39.9326 8.015 50.2791 19.145 53.9471C20.545 54.1893 21.07 53.3589 21.07 52.6322C21.07 51.9747 21.035 49.7947 21.035 47.4762C14 48.7566 12.18 45.7807 11.62 44.2235C11.305 43.4276 9.94 40.9707 8.75 40.3133C7.77 39.7942 6.37 38.5139 8.715 38.4793C10.92 38.4447 12.495 40.4863 13.02 41.3168C15.54 45.5038 19.565 44.3273 21.175 43.6006C21.42 41.8012 22.155 40.5901 22.96 39.898C16.73 39.206 10.22 36.8183 10.22 26.2296C10.22 23.2191 11.305 20.7276 13.09 18.7898C12.81 18.0977 11.83 15.2602 13.37 11.4538C13.37 11.4538 15.715 10.7271 21.07 14.2913C23.31 13.6684 25.69 13.357 28.07 13.357C30.45 13.357 32.83 13.6684 35.07 14.2913C40.425 10.6925 42.77 11.4538 42.77 11.4538C44.31 15.2602 43.33 18.0977 43.05 18.7898C44.835 20.7276 45.92 23.1845 45.92 26.2296C45.92 36.8529 39.375 39.206 33.145 39.898C34.16 40.7631 35.035 42.4241 35.035 45.0194C35.035 48.722 35 51.6979 35 52.6322C35 53.3589 35.525 54.2239 36.925 53.9471C47.985 50.2791 56 39.898 56 27.6829C56 12.3881 43.47 0 28 0V0Z" fill="black"/>
</svg>
