<svg width="52" height="59" viewBox="0 0 52 59" fill="none" xmlns="http://www.w3.org/2000/svg">
<rect x="6.02252" y="6.91531" width="38.5015" height="42.9871" fill="white"/>
<rect x="6.02252" y="6.91531" width="38.5015" height="42.9871" fill="white"/>
<path d="M52 0L47.1242 52.8119L25.9997 58.4998L4.87474 52.8119L0 0H52ZM42.1751 10.7385H25.9807H9.49933L10.2875 17.116H25.9807H26.8622L25.9807 17.4829L10.8611 23.7801L11.3625 30.0139L25.9807 30.0613L33.8155 30.0862L33.314 38.3982L25.9805 40.4629V40.4564L25.9204 40.4731L18.8382 38.6852L18.4084 33.5256H18.3849H11.8157H11.7926L12.6525 43.4862L25.9808 47.4277V47.4206L26.0048 47.4277L39.2617 43.558L40.9813 23.7801H25.9808H25.9438L25.9808 23.7641L41.5308 17.116L42.1751 10.7385Z" fill="#33AADD"/>
<path d="M52 0L47.1242 52.8119L25.9997 58.4998L4.87474 52.8119L0 0H52ZM42.1751 10.7385H25.9807H9.49933L10.2875 17.116H25.9807H26.8622L25.9807 17.4829L10.8611 23.7801L11.3625 30.0139L25.9807 30.0613L33.8155 30.0862L33.314 38.3982L25.9805 40.4629V40.4564L25.9204 40.4731L18.8382 38.6852L18.4084 33.5256H18.3849H11.8157H11.7926L12.6525 43.4862L25.9808 47.4277V47.4206L26.0048 47.4277L39.2617 43.558L40.9813 23.7801H25.9808H25.9438L25.9808 23.7641L41.5308 17.116L42.1751 10.7385Z" fill="#33AADD"/>
<rect x="6.02252" y="6.91531" width="38.5015" height="42.9871" fill="white"/>
<rect x="6.02252" y="6.91531" width="38.5015" height="42.9871" fill="white"/>
<path d="M52 0L47.1242 52.8119L25.9997 58.4998L4.87474 52.8119L0 0H52ZM42.1751 10.7385H25.9807H9.49933L10.2875 17.116H25.9807H26.8622L25.9807 17.4829L10.8611 23.7801L11.3625 30.0139L25.9807 30.0613L33.8155 30.0862L33.314 38.3982L25.9805 40.4629V40.4564L25.9204 40.4731L18.8382 38.6852L18.4084 33.5256H18.3849H11.8157H11.7926L12.6525 43.4862L25.9808 47.4277V47.4206L26.0048 47.4277L39.2617 43.558L40.9813 23.7801H25.9808H25.9438L25.9808 23.7641L41.5308 17.116L42.1751 10.7385Z" fill="black"/>
<path d="M52 0L47.1242 52.8119L25.9997 58.4998L4.87474 52.8119L0 0H52ZM42.1751 10.7385H25.9807H9.49933L10.2875 17.116H25.9807H26.8622L25.9807 17.4829L10.8611 23.7801L11.3625 30.0139L25.9807 30.0613L33.8155 30.0862L33.314 38.3982L25.9805 40.4629V40.4564L25.9204 40.4731L18.8382 38.6852L18.4084 33.5256H18.3849H11.8157H11.7926L12.6525 43.4862L25.9808 47.4277V47.4206L26.0048 47.4277L39.2617 43.558L40.9813 23.7801H25.9808H25.9438L25.9808 23.7641L41.5308 17.116L42.1751 10.7385Z" fill="black"/>
</svg>
