<svg width="56" height="56" viewBox="0 0 56 56" fill="none" xmlns="http://www.w3.org/2000/svg">
<g clip-path="url(#clip0_3_120)">
<path d="M0 20.2667C0 13.1727 0 9.62567 1.38058 6.91612C2.59498 4.53273 4.53273 2.59498 6.91612 1.38058C9.62567 0 13.1727 0 20.2667 0H35.7333C42.8273 0 46.3743 0 49.0839 1.38058C51.4673 2.59498 53.405 4.53273 54.6194 6.91612C56 9.62567 56 13.1727 56 20.2667V35.7333C56 42.8273 56 46.3743 54.6194 49.0839C53.405 51.4673 51.4673 53.405 49.0839 54.6194C46.3743 56 42.8273 56 35.7333 56H20.2667C13.1727 56 9.62567 56 6.91612 54.6194C4.53273 53.405 2.59498 51.4673 1.38058 49.0839C0 46.3743 0 42.8273 0 35.7333V20.2667Z" fill="#001E36"/>
<path d="M12 41.0325V16.4068C12 16.2393 12.07 16.1436 12.2333 16.1436C14.6446 16.1436 17.0548 16 19.4667 16C23.3803 16 27.618 17.3382 29.1033 21.4325C29.4533 22.4376 29.64 23.4667 29.64 24.5436C29.64 26.6017 29.1733 28.3009 28.24 29.641C25.6328 33.3847 21.114 33.3265 17.0633 33.3265V41.0086C17.095 41.236 16.9012 41.3436 16.7133 41.3436H12.28C12.0933 41.3436 12 41.2479 12 41.0325ZM17.0867 20.7624V28.8034C18.6928 28.9211 20.3735 28.9339 21.9167 28.4205C23.6203 27.9291 24.5533 26.4543 24.5533 24.6872C24.6007 23.1814 23.7802 21.7366 22.3833 21.1932C20.8587 20.5592 18.7324 20.5213 17.0867 20.7624Z" fill="white"/>
<path d="M44.1933 27.2148C43.4873 26.8427 42.7354 26.5705 41.9581 26.4056C40.9592 26.1705 37.0196 25.3474 37.0181 27.4074C37.053 28.5575 38.8786 29.1209 39.6852 29.4495C42.5169 30.4216 45.7214 32.1594 45.6584 35.6528C45.745 40.0016 41.5315 41.7401 37.9196 41.7405C36.0393 41.76 34.0806 41.4688 32.3598 40.6617C32.1955 40.5747 32.0897 40.3887 32.0968 40.1993V36.0381C32.0783 35.8712 32.2573 35.7254 32.3973 35.8454C34.0834 36.8651 36.0819 37.3601 38.0323 37.3866C38.8933 37.3866 40.5998 37.3031 40.5869 36.0381C40.5869 34.824 38.5455 34.2659 37.7318 33.9574C36.5522 33.5364 35.4338 32.9531 34.4071 32.2236C32.9724 31.2002 32.0723 29.5594 32.0968 27.7541C32.0884 23.6594 35.9669 21.8214 39.4599 21.8205C41.0928 21.8071 42.8463 21.928 44.3664 22.5911C44.585 22.6555 44.6303 22.8857 44.6293 23.092V26.9835C44.6432 27.2251 44.3749 27.3074 44.1933 27.2148Z" fill="white"/>
</g>
<defs>
<clipPath id="clip0_3_120">
<rect width="56" height="56" fill="white"/>
</clipPath>
</defs>
</svg>
