<svg width="52" height="52" viewBox="0 0 52 52" fill="none" xmlns="http://www.w3.org/2000/svg">
<g clip-path="url(#clip0_3_148)">
<path d="M17.401 52C22.185 52 26.0677 48.1173 26.0677 43.3333V34.6667H17.401C12.617 34.6667 8.73438 38.5493 8.73438 43.3333C8.73438 48.1173 12.617 52 17.401 52Z" fill="black"/>
<path d="M17.4014 18.3333H25.0674V33.6663H17.4014C13.1698 33.6663 9.73455 30.2319 9.73438 26.0003C9.73438 21.7686 13.1697 18.3333 17.4014 18.3333Z" fill="white" stroke="black" stroke-width="2"/>
<path d="M8.73438 8.66667C8.73438 3.88267 12.617 0 17.401 0H26.0677V17.3333H17.401C12.617 17.3333 8.73438 13.4507 8.73438 8.66667Z" fill="black"/>
<path d="M34.7347 1C38.9662 1.00018 42.4007 4.43539 42.4007 8.66699C42.4005 12.8984 38.9661 16.3328 34.7347 16.333H27.0677V1H34.7347Z" fill="white" stroke="black" stroke-width="2"/>
<path d="M43.401 26C43.401 30.784 39.5184 34.6667 34.7344 34.6667C29.9504 34.6667 26.0677 30.784 26.0677 26C26.0677 21.216 29.9504 17.3333 34.7344 17.3333C39.5184 17.3333 43.401 21.216 43.401 26Z" fill="black"/>
</g>
<defs>
<clipPath id="clip0_3_148">
<rect width="52" height="52" fill="white"/>
</clipPath>
</defs>
</svg>
