<svg width="60" height="60" viewBox="0 0 60 60" fill="none" xmlns="http://www.w3.org/2000/svg">
<path d="M13.0116 9.57234C9.56532 14.5247 9.99422 20.9686 12.6272 26.2317L12.8198 26.6058L12.9431 26.843L13.02 26.9794L13.1573 27.225C13.2389 27.3689 13.3228 27.5119 13.4086 27.6558L13.552 27.892C13.6472 28.0448 13.7442 28.1967 13.8436 28.3481L13.9678 28.5398C14.1052 28.7447 14.2453 28.9486 14.3902 29.1497L14.4023 29.1652L14.4736 29.2613C14.5988 29.4338 14.7277 29.6044 14.8584 29.7736L15.0033 29.9578C15.12 30.1045 15.2386 30.2498 15.3591 30.3956L15.495 30.5578C15.6567 30.7481 15.8222 30.9384 15.9905 31.1241L16.0003 31.1344L16.0195 31.1555C16.1841 31.335 16.3523 31.5108 16.5234 31.6866L16.6847 31.8492C16.8169 31.9823 16.9514 32.1131 17.0869 32.2434L17.2514 32.4C17.4328 32.5706 17.6156 32.7384 17.8027 32.9016L17.8111 32.9091L17.9072 32.9906C18.0717 33.1336 18.2391 33.2742 18.4078 33.4134L18.615 33.5789C18.7528 33.6891 18.892 33.7983 19.0322 33.9052L19.2558 34.0744C19.4105 34.1883 19.5666 34.3003 19.7241 34.4105L19.8942 34.5314L19.9416 34.5652C20.0906 34.6683 20.2439 34.7672 20.3963 34.8661L20.5931 34.9973C20.8275 35.145 21.0652 35.2917 21.3052 35.4333L21.502 35.5444C21.6788 35.6461 21.8564 35.7464 22.0364 35.8439L22.3322 35.9967L22.7147 36.1955L22.8028 36.2381L22.9594 36.3136C23.1595 36.4092 23.3616 36.5034 23.5655 36.5944L23.6934 36.6516C23.9269 36.7538 24.1627 36.8517 24.4003 36.9459L24.5728 37.0134C24.7927 37.0987 25.0158 37.1817 25.2398 37.2605L25.3238 37.2895C25.5694 37.3758 25.8178 37.455 26.0677 37.5333L26.2472 37.5867C26.5013 37.6636 26.753 37.7545 27.015 37.8033C43.6805 40.8422 48.5213 27.7889 48.5213 27.7889C44.4553 33.0858 37.2389 34.4827 30.4013 32.9273C30.142 32.8688 29.8908 32.7877 29.6381 32.7136L29.4478 32.6555C29.2014 32.5803 28.9563 32.5006 28.7128 32.4164L28.612 32.3803C28.3949 32.3034 28.179 32.2232 27.9642 32.1398L27.7823 32.0686C27.5475 31.9758 27.3136 31.8787 27.083 31.778L26.9433 31.7156C26.7454 31.6267 26.5487 31.5353 26.3531 31.4414L26.1825 31.3594C26.0292 31.2848 25.8778 31.2056 25.7259 31.1273L25.4217 30.9675C25.2366 30.8691 25.0552 30.7659 24.8747 30.6609L24.69 30.5583C24.4503 30.4163 24.2128 30.2707 23.9775 30.1214L23.7853 29.9934C23.6146 29.8838 23.4457 29.7714 23.2786 29.6564L23.115 29.5416C22.954 29.4281 22.7943 29.3128 22.6359 29.1956L22.4236 29.0348C22.2783 28.9238 22.1339 28.8117 21.9914 28.6969L21.7988 28.5422C21.6169 28.3931 21.4373 28.2422 21.2602 28.088L21.2011 28.0388C21.0098 27.87 20.821 27.6984 20.6348 27.5241L20.4755 27.3703C20.3374 27.2398 20.2018 27.1069 20.0686 26.9714L19.9092 26.812C19.7395 26.6386 19.5731 26.4628 19.41 26.2842L19.3852 26.2575C19.2127 26.0688 19.0439 25.8767 18.8789 25.6814L18.7463 25.5239C18.6228 25.3754 18.5014 25.2253 18.382 25.0734L18.2484 24.907C18.1055 24.7223 17.9652 24.5356 17.8275 24.3469C14.0316 19.1686 12.6675 12.0267 15.7017 6.16172M23.7084 5.39953C21.2166 8.98547 21.3516 13.7869 23.2959 17.5791C23.6212 18.2166 23.9894 18.8313 24.398 19.4189C24.7711 19.9547 25.1855 20.5913 25.6809 21.0211C25.8605 21.2189 26.0484 21.412 26.2402 21.6014L26.3873 21.7472C26.5734 21.9277 26.7628 22.1053 26.9583 22.2778L26.9817 22.298L26.9874 22.3036C27.2039 22.4934 27.4275 22.6758 27.6544 22.8558L27.8058 22.9739C28.0336 23.1483 28.2656 23.3198 28.5038 23.4834L28.5239 23.4989L28.8427 23.7084L28.9936 23.8083C29.1638 23.9175 29.3358 24.0234 29.5111 24.1252L29.5842 24.1683C29.7352 24.255 29.888 24.3403 30.0413 24.4238L30.2039 24.5081L30.5236 24.6741L30.5719 24.6961C30.7917 24.8039 31.013 24.9084 31.2394 25.0069L31.3866 25.0678C31.5675 25.1442 31.7498 25.2192 31.9336 25.2895L32.168 25.3758C32.3348 25.4377 32.5017 25.4944 32.6705 25.5506L32.8973 25.6233C33.1369 25.6973 33.3741 25.7916 33.6234 25.8333C46.4906 27.9647 49.4611 18.0577 49.4611 18.0577C46.7836 21.9145 41.5978 23.7544 36.0642 22.3181C35.8197 22.2536 35.5766 22.1835 35.3353 22.1077L35.1164 22.0369C34.9454 21.9818 34.7756 21.9234 34.6069 21.8616L34.3767 21.7758C34.1926 21.7049 34.0096 21.631 33.8278 21.5541L33.6802 21.4917C33.4539 21.3931 33.2301 21.289 33.0089 21.1795L32.6723 21.0084L32.4783 20.9086C32.3349 20.8308 32.1923 20.7502 32.0522 20.6677L31.9505 20.61C31.7764 20.5086 31.6045 20.4036 31.4348 20.295L31.2792 20.1914L30.9455 19.9702C30.7095 19.8064 30.4775 19.6368 30.2498 19.4616L30.0933 19.3378C27.6713 17.4258 25.7513 14.812 24.8386 11.8486C23.8819 8.775 24.0881 5.325 25.7456 2.52469M32.7052 2.28188C31.2361 4.44375 31.0917 7.12922 32.1113 9.51703C33.1861 12.0516 35.3888 14.0395 37.9599 14.9827L38.2795 15.0928L38.4202 15.1378C38.5716 15.1856 38.722 15.2409 38.8786 15.27C45.9834 16.643 47.9105 11.6245 48.4233 10.8853C46.7353 13.3158 43.8984 13.8994 40.4175 13.0542C40.1327 12.9816 39.8518 12.8947 39.5756 12.7941C39.2352 12.673 38.9014 12.5344 38.5753 12.3788C37.9569 12.0809 37.3695 11.7226 36.8217 11.3091C33.7069 8.94562 31.7723 4.43766 33.8048 0.765938" fill="black"/>
<path d="M31.1058 45.1383H29.1248C29.0688 45.1404 29.0149 45.1606 28.9713 45.1959C28.9276 45.2311 28.8965 45.2794 28.8825 45.3338L28.1794 48.5869L27.4762 51.84C27.4624 51.8943 27.4314 51.9427 27.3878 51.9779C27.3442 52.0132 27.2904 52.0334 27.2344 52.0355H25.8323C24.4453 52.0355 24.6056 51.0759 24.8897 49.7616L24.8981 49.7217L24.9291 49.5558L24.9347 49.5248L24.998 49.1873L25.0659 48.8259L25.1381 48.458L25.4578 46.8961L25.778 45.3342C25.7841 45.3104 25.7845 45.2854 25.7792 45.2614C25.7739 45.2373 25.7631 45.2148 25.7475 45.1957C25.732 45.1766 25.7122 45.1614 25.6897 45.1514C25.6672 45.1413 25.6427 45.1367 25.6181 45.1378H23.5852C23.5292 45.1399 23.4753 45.1601 23.4319 45.1954C23.3884 45.2308 23.3576 45.2793 23.3442 45.3338L22.9069 47.4075L22.47 49.4817L22.4691 49.4845L22.4287 49.6777C21.9253 51.9759 22.0584 54.1683 24.795 54.2372L24.8747 54.2386H29.1698C29.2259 54.2365 29.2797 54.2163 29.3233 54.1811C29.3669 54.1458 29.3979 54.0974 29.4117 54.0431L30.338 49.6889L31.2642 45.3342C31.2872 45.2264 31.2159 45.1388 31.1058 45.1383V45.1383ZM9.89203 45.1153H7.71703C7.66084 45.1175 7.60682 45.1376 7.56288 45.1727C7.51894 45.2078 7.48737 45.256 7.47281 45.3103L7.26656 46.2206L7.06031 47.1309C7.0364 47.2383 7.10625 47.3259 7.2164 47.3259H9.40828C9.46441 47.3239 9.51837 47.3037 9.56213 47.2685C9.60588 47.2333 9.63709 47.1849 9.65109 47.1305L9.85031 46.2206L10.0495 45.3108C10.0725 45.2034 10.0022 45.1153 9.89203 45.1153V45.1153ZM9.26109 47.9484H7.06875C7.01258 47.9507 6.9586 47.9708 6.91467 48.0059C6.87074 48.041 6.83916 48.0892 6.82453 48.1434L6.51656 49.5075L6.20906 50.8711L6.12328 51.262L5.8275 52.6542L5.53218 54.0469C5.50921 54.1542 5.46187 54.3277 5.42671 54.4317C5.42671 54.4317 5.01703 55.6505 4.32843 55.6364L4.24218 55.6345L3.6464 55.6238H3.64593C3.58996 55.6251 3.5359 55.6443 3.49169 55.6787C3.44747 55.713 3.41544 55.7606 3.40031 55.8145L3.17296 56.7703L2.94609 57.7256C2.92031 57.8325 2.98968 57.9206 3.0989 57.9225C3.48937 57.9272 4.36406 57.937 4.89328 57.937C6.61312 57.937 7.52015 56.9841 8.10093 54.2419L8.78109 51.0947L9.41906 48.143C9.44203 48.0366 9.37078 47.9484 9.26109 47.9484V47.9484ZM49.6284 47.2106L49.5375 46.8352L49.448 46.4508L49.4025 46.2567C49.2244 45.5644 48.7017 45.1655 47.5664 45.1655L45.7992 45.1636L44.1717 45.1613H42.3403C42.2843 45.1633 42.2305 45.1835 42.187 45.2187C42.1435 45.254 42.1126 45.3024 42.0989 45.3567L42.0178 45.7392L41.9222 46.1911L41.8955 46.3181L41.0709 50.1806L40.2881 53.8472C40.2647 53.955 40.2572 54.0872 40.2703 54.1406C40.2834 54.1945 40.4948 54.2386 40.6045 54.2386H42.2564C42.3666 54.2386 42.5058 54.2189 42.5658 54.1945C42.6258 54.1702 42.7144 53.9541 42.7364 53.8467L43.0298 52.3941L43.3237 50.9409L43.3242 50.9386L43.3636 50.745L43.7198 49.0763L44.0344 47.6025C44.0482 47.5483 44.0792 47.5 44.1227 47.4648C44.1662 47.4296 44.2199 47.4093 44.2758 47.407L49.4737 47.4047C49.5839 47.4056 49.6533 47.318 49.6284 47.2106V47.2106ZM56.3198 43.8169L55.9195 43.8183H54.2559C54.195 43.8217 54.1355 43.8383 54.0815 43.8668C54.0275 43.8954 53.9804 43.9353 53.9433 43.9838L50.2641 49.3734C50.2022 49.4644 50.1314 49.4513 50.107 49.3444L49.8361 48.157C49.8215 48.1026 49.7899 48.0544 49.7458 48.0193C49.7018 47.9842 49.6477 47.9641 49.5914 47.962H47.2266C47.1164 47.962 47.0512 48.0483 47.0812 48.1537L48.1411 51.8667C48.1711 51.9727 48.1734 52.1461 48.1462 52.253L47.6845 54.0497C47.6569 54.1566 47.7244 54.2433 47.8345 54.2433H50.1722C50.2287 54.241 50.2831 54.2211 50.3278 54.1864C50.3726 54.1517 50.4053 54.1039 50.4216 54.0497L50.8837 52.253C50.9203 52.1263 50.9778 52.0067 51.0539 51.8991L57.0267 43.972C57.0933 43.8839 57.0572 43.8122 56.9475 43.8131L56.3198 43.8169V43.8169ZM37.5295 48.4664V48.4645C37.5214 48.5211 37.4934 48.573 37.4506 48.6109C37.4077 48.6488 37.3528 48.6702 37.2956 48.6713H34.297C34.193 48.6713 34.1405 48.6009 34.1559 48.5138L34.1587 48.5067L34.1569 48.5077L34.1583 48.4978L34.1719 48.4467C34.4583 47.6855 35.0414 47.1858 36.1378 47.1858C37.3725 47.1853 37.6134 47.7881 37.5295 48.4664V48.4664ZM36.6497 45.0052C32.8008 45.0052 31.8886 47.3414 31.3767 49.6997C30.8653 52.1034 30.9089 54.3502 34.8923 54.3502H35.3752L35.4952 54.3497H35.5233L36.0014 54.3483H36.0098C37.0617 54.3441 38.1169 54.3361 38.5439 54.3328C38.5995 54.33 38.6528 54.3093 38.6958 54.2739C38.7388 54.2384 38.7692 54.19 38.7825 54.1359L38.9437 53.348L38.9752 53.1947L39.1673 52.2544C39.1735 52.2305 39.1739 52.2056 39.1686 52.1816C39.1633 52.1575 39.1525 52.1351 39.1369 52.116C39.1214 52.0969 39.1016 52.0818 39.0791 52.0718C39.0566 52.0618 39.0321 52.0572 39.0075 52.0584H35.4267C34.0022 52.0584 33.5794 51.6802 33.7355 50.5673H39.4594L39.4589 50.5678L39.4626 50.5673C39.5079 50.5654 39.5517 50.5504 39.5887 50.5242C39.6257 50.498 39.6543 50.4617 39.6712 50.4197L39.6848 50.37L39.6844 50.3705C40.5342 47.1647 40.2905 45.0056 36.6497 45.0052V45.0052ZM18.4575 48.4542L18.4031 48.6459V48.6464L17.9709 50.1783L17.5387 51.7097C17.5211 51.764 17.4872 51.8115 17.4417 51.846C17.3962 51.8804 17.3412 51.9001 17.2842 51.9023H14.9967C13.2614 51.9023 12.8386 50.5448 13.2614 48.5433C13.6837 46.4958 14.512 45.2231 16.2202 45.0942C18.5545 44.918 19.0214 46.5595 18.4575 48.4542V48.4542ZM20.0269 51.7847C20.0269 51.7847 21.1055 49.1653 21.3502 47.6531C21.6844 45.6286 20.6705 42.6914 16.7545 42.6914C12.8611 42.6914 11.1698 45.495 10.5248 48.5433C9.87984 51.6136 10.725 54.3056 14.5964 54.2836L17.6508 54.2723L20.505 54.262C20.5616 54.2592 20.6159 54.2391 20.6607 54.2044C20.7055 54.1697 20.7385 54.1221 20.7553 54.068L21.2527 52.1714C21.2803 52.0645 21.2133 51.9773 21.1031 51.9764L20.6264 51.9736L20.1497 51.9708C20.0564 51.9703 20.003 51.9094 20.0142 51.8292L20.0269 51.7847V51.7847ZM39.3019 50.0311C39.3019 50.0483 39.2985 50.0654 39.292 50.0813C39.2854 50.0973 39.2758 50.1118 39.2636 50.124C39.2514 50.1362 39.237 50.1459 39.2211 50.1525C39.2052 50.1591 39.1881 50.1625 39.1709 50.1626C39.1536 50.1626 39.1365 50.1592 39.1206 50.1527C39.1047 50.1461 39.0902 50.1365 39.078 50.1243C39.0658 50.1121 39.0561 50.0977 39.0494 50.0818C39.0428 50.0659 39.0394 50.0488 39.0394 50.0316C39.0393 49.9968 39.0531 49.9633 39.0776 49.9387C39.1022 49.914 39.1356 49.9001 39.1704 49.9001C39.2052 49.9 39.2386 49.9138 39.2633 49.9384C39.2879 49.9629 39.3018 49.9963 39.3019 50.0311Z" fill="#040404"/>
</svg>
