<svg width="60" height="60" viewBox="0 0 60 60" fill="none" xmlns="http://www.w3.org/2000/svg">
<path d="M12.7664 6.50861C9.4022 6.50861 6.91361 9.45423 7.0247 12.6488C7.13157 15.7172 6.99282 19.6922 5.99204 22.9331C4.98892 26.1844 3.29204 28.2389 0.520325 28.5033V31.4972C3.29204 31.7611 4.98892 33.8161 5.99204 37.0674C6.99282 40.3083 7.13111 44.2833 7.0247 47.3517C6.91314 50.5463 9.4022 53.4914 12.7664 53.4914H47.2383C50.6025 53.4914 53.0911 50.5458 52.98 47.3517C52.8731 44.2833 53.0119 40.3083 54.0122 37.0674C55.0153 33.8166 56.708 31.7616 59.4797 31.4972V28.5033C56.708 28.2394 55.0158 26.1844 54.0122 22.9331C53.0119 19.6922 52.8731 15.7172 52.98 12.6488C53.0911 9.45423 50.6025 6.50861 47.2378 6.50861H12.7664ZM40.0074 35.4239C40.0074 39.8227 36.7252 42.4894 31.2788 42.4894H21.2372C21.1762 42.4894 21.1176 42.4651 21.0745 42.422C21.0313 42.3788 21.007 42.3203 21.007 42.2592V17.7314C21.007 17.7012 21.0129 17.6712 21.0244 17.6432C21.036 17.6152 21.0529 17.5898 21.0743 17.5684C21.0957 17.5469 21.1211 17.53 21.149 17.5184C21.177 17.5068 21.2069 17.5008 21.2372 17.5008H31.2258C35.7675 17.5008 38.7478 19.9599 38.7478 23.7352C38.7478 26.385 36.743 28.7569 34.1883 29.1727V29.3114C37.6655 29.6925 40.0074 32.0995 40.0074 35.4239ZM30.2677 20.67H24.9811V28.1335H29.4342C32.8758 28.1335 34.7738 26.7483 34.7738 24.2719C34.7738 21.9516 33.142 20.67 30.2677 20.67V20.67ZM24.9811 31.095V39.3206H30.4631C34.0467 39.3206 35.9452 37.8834 35.9452 35.1816C35.9452 32.4802 33.9938 31.095 30.2325 31.095H24.9811Z" fill="black"/>
</svg>
