<svg width="52" height="46" viewBox="0 0 52 46" fill="none" xmlns="http://www.w3.org/2000/svg">
<path d="M30.6434 22.4916C30.6434 20.0053 28.5646 17.9894 26 17.9894C23.4357 17.9894 21.3566 20.0053 21.3566 22.4916C21.3566 24.9782 23.4357 26.9939 26 26.9939C28.5646 26.9939 30.6434 24.9782 30.6434 22.4916Z" fill="#53C1DE"/>
<path fill-rule="evenodd" clip-rule="evenodd" d="M41.0807 14.1331C42.0612 10.2696 43.2938 3.10523 38.9487 0.676275C34.6239 -1.74209 28.9959 2.89194 26.0241 5.67351C23.061 2.91966 17.2749 -1.69456 12.9335 0.742107C8.61035 3.16858 9.94351 10.2142 10.9458 14.1019C6.91307 15.2124 0 17.6044 0 22.4916C0 27.3648 6.90588 29.9673 10.9148 31.0768C9.90874 34.9859 8.64233 41.9309 12.971 44.352C17.3287 46.7882 23.0967 42.2838 26.096 39.4718C29.0869 42.2698 34.6608 46.8036 38.9865 44.3758C43.3257 41.9403 42.1956 34.8719 41.1932 30.9617C45.0793 29.8497 52 27.304 52 22.4916C52 17.6514 45.0499 15.24 41.0807 14.1331ZM40.5881 28.8895C39.9299 26.8694 39.0416 24.7213 37.955 22.5023C38.9922 20.3356 39.846 18.2153 40.4858 16.2082C43.3956 17.0262 49.7787 18.8956 49.7787 22.4916C49.7787 26.1213 43.6533 28.0084 40.5881 28.8895ZM37.8733 42.5117C34.6459 44.3231 29.8516 39.9873 27.6429 37.9269C29.1082 36.373 30.5725 34.5665 32.0017 32.5605C34.5157 32.3443 36.8905 31.9907 39.0444 31.508C39.7498 34.2739 41.115 40.6922 37.8733 42.5117ZM14.0809 42.4859C10.8531 40.6813 12.3285 34.484 13.0686 31.6044C15.1985 32.0613 17.5562 32.3899 20.0762 32.5881C21.5147 34.5509 23.0214 36.3551 24.5398 37.9352C22.6639 39.6947 17.3238 44.2988 14.0809 42.4859ZM2.22125 22.4916C2.22125 18.8483 8.56625 16.9924 11.5423 16.1765C12.1932 18.2286 13.0467 20.3743 14.0768 22.5441C13.0334 24.7461 12.1676 26.9258 11.5108 29.0021C8.67306 28.2145 2.22125 26.1371 2.22125 22.4916ZM14.0464 2.60613C17.2874 0.787209 22.3161 5.21704 24.4676 7.21089C22.957 8.78373 21.464 10.5744 20.0379 12.5259C17.5923 12.7457 15.2512 13.0986 13.099 13.5715C12.2915 10.4359 10.8089 4.4231 14.0464 2.60613ZM33.5908 14.867C35.2499 15.0699 36.8396 15.34 38.3321 15.6704C37.8841 17.0629 37.3256 18.5191 36.6678 20.0119C35.7143 18.2577 34.6908 16.5388 33.5908 14.867ZM26.0248 8.75004C27.0494 9.82621 28.0755 11.028 29.085 12.3318C27.0374 12.2379 24.9865 12.2375 22.9389 12.3304C23.9493 11.0387 24.9843 9.83871 26.0248 8.75004ZM15.3513 20.0103C14.7044 18.5227 14.1509 17.0602 13.6989 15.6477C15.1826 15.3258 16.7648 15.0627 18.4132 14.863C17.3101 16.5311 16.2883 18.2494 15.3513 20.0103ZM18.4605 30.2739C16.7577 30.0896 15.1515 29.8399 13.6683 29.5268C14.1274 28.0895 14.6931 26.5954 15.3538 25.0758C16.3037 26.8551 17.3411 28.5899 18.4605 30.2739ZM26.0863 36.3853C25.0335 35.2837 23.9833 34.0654 22.9577 32.755C25.0169 32.8333 27.08 32.8335 29.1391 32.7444C28.1265 34.0787 27.104 35.2988 26.0863 36.3853ZM36.6889 24.9985C37.384 26.5346 37.9699 28.0205 38.4353 29.4336C36.9275 29.7672 35.2997 30.0359 33.5845 30.2354C34.6927 28.5319 35.7325 26.7862 36.6889 24.9985ZM30.762 30.4964C27.6122 30.7147 24.4428 30.7122 21.2919 30.5143C19.5016 27.9786 17.9078 25.3119 16.532 22.5434C17.9012 19.7806 19.4834 17.1191 21.2652 14.5874C24.4183 14.3563 27.5909 14.3556 30.744 14.5888C32.5106 17.1203 34.0903 19.7749 35.4912 22.5127C34.107 25.2741 32.5165 27.941 30.762 30.4964ZM37.8392 2.5421C41.081 4.35507 39.638 10.7939 38.9298 13.5938C36.7725 13.1111 34.4297 12.752 31.9771 12.5287C30.5481 10.5561 29.0677 8.76231 27.5815 7.20978C29.7605 5.17298 34.6287 0.746874 37.8392 2.5421Z" fill="#53C1DE"/>
<path d="M30.6434 22.4916C30.6434 20.0053 28.5646 17.9894 26 17.9894C23.4357 17.9894 21.3566 20.0053 21.3566 22.4916C21.3566 24.9782 23.4357 26.9939 26 26.9939C28.5646 26.9939 30.6434 24.9782 30.6434 22.4916Z" fill="black"/>
<path fill-rule="evenodd" clip-rule="evenodd" d="M41.0807 14.1331C42.0612 10.2696 43.2938 3.10523 38.9487 0.676275C34.6239 -1.74209 28.9959 2.89194 26.0241 5.67351C23.061 2.91966 17.2749 -1.69456 12.9335 0.742107C8.61035 3.16858 9.94351 10.2142 10.9458 14.1019C6.91307 15.2124 0 17.6044 0 22.4916C0 27.3648 6.90588 29.9673 10.9148 31.0768C9.90874 34.9859 8.64233 41.9309 12.971 44.352C17.3287 46.7882 23.0967 42.2838 26.096 39.4718C29.0869 42.2698 34.6608 46.8036 38.9865 44.3758C43.3257 41.9403 42.1956 34.8719 41.1932 30.9617C45.0793 29.8497 52 27.304 52 22.4916C52 17.6514 45.0499 15.24 41.0807 14.1331ZM40.5881 28.8895C39.9299 26.8694 39.0416 24.7213 37.955 22.5023C38.9922 20.3356 39.846 18.2153 40.4858 16.2082C43.3956 17.0262 49.7787 18.8956 49.7787 22.4916C49.7787 26.1213 43.6533 28.0084 40.5881 28.8895ZM37.8733 42.5117C34.6459 44.3231 29.8516 39.9873 27.6429 37.9269C29.1082 36.373 30.5725 34.5665 32.0017 32.5605C34.5157 32.3443 36.8905 31.9907 39.0444 31.508C39.7498 34.2739 41.115 40.6922 37.8733 42.5117ZM14.0809 42.4859C10.8531 40.6813 12.3285 34.484 13.0686 31.6044C15.1985 32.0613 17.5562 32.3899 20.0762 32.5881C21.5147 34.5509 23.0214 36.3551 24.5398 37.9352C22.6639 39.6947 17.3238 44.2988 14.0809 42.4859ZM2.22125 22.4916C2.22125 18.8483 8.56625 16.9924 11.5423 16.1765C12.1932 18.2286 13.0467 20.3743 14.0768 22.5441C13.0334 24.7461 12.1676 26.9258 11.5108 29.0021C8.67306 28.2145 2.22125 26.1371 2.22125 22.4916ZM14.0464 2.60613C17.2874 0.787209 22.3161 5.21704 24.4676 7.21089C22.957 8.78373 21.464 10.5744 20.0379 12.5259C17.5923 12.7457 15.2512 13.0986 13.099 13.5715C12.2915 10.4359 10.8089 4.4231 14.0464 2.60613ZM33.5908 14.867C35.2499 15.0699 36.8396 15.34 38.3321 15.6704C37.8841 17.0629 37.3256 18.5191 36.6678 20.0119C35.7143 18.2577 34.6908 16.5388 33.5908 14.867ZM26.0248 8.75004C27.0494 9.82621 28.0755 11.028 29.085 12.3318C27.0374 12.2379 24.9865 12.2375 22.9389 12.3304C23.9493 11.0387 24.9843 9.83871 26.0248 8.75004ZM15.3513 20.0103C14.7044 18.5227 14.1509 17.0602 13.6989 15.6477C15.1826 15.3258 16.7648 15.0627 18.4132 14.863C17.3101 16.5311 16.2883 18.2494 15.3513 20.0103ZM18.4605 30.2739C16.7577 30.0896 15.1515 29.8399 13.6683 29.5268C14.1274 28.0895 14.6931 26.5954 15.3538 25.0758C16.3037 26.8551 17.3411 28.5899 18.4605 30.2739ZM26.0863 36.3853C25.0335 35.2837 23.9833 34.0654 22.9577 32.755C25.0169 32.8333 27.08 32.8335 29.1391 32.7444C28.1265 34.0787 27.104 35.2988 26.0863 36.3853ZM36.6889 24.9985C37.384 26.5346 37.9699 28.0205 38.4353 29.4336C36.9275 29.7672 35.2997 30.0359 33.5845 30.2354C34.6927 28.5319 35.7325 26.7862 36.6889 24.9985ZM30.762 30.4964C27.6122 30.7147 24.4428 30.7122 21.2919 30.5143C19.5016 27.9786 17.9078 25.3119 16.532 22.5434C17.9012 19.7806 19.4834 17.1191 21.2652 14.5874C24.4183 14.3563 27.5909 14.3556 30.744 14.5888C32.5106 17.1203 34.0903 19.7749 35.4912 22.5127C34.107 25.2741 32.5165 27.941 30.762 30.4964ZM37.8392 2.5421C41.081 4.35507 39.638 10.7939 38.9298 13.5938C36.7725 13.1111 34.4297 12.752 31.9771 12.5287C30.5481 10.5561 29.0677 8.76231 27.5815 7.20978C29.7605 5.17298 34.6287 0.746874 37.8392 2.5421Z" fill="black"/>
</svg>
